<mxfile host="app.diagrams.net" modified="2023-10-04T21:03:28.293Z" agent="Mozilla/5.0 (X11; Linux x86_64) AppleWebKit/537.36 (KHTML, like Gecko) Chrome/117.0.0.0 Safari/537.36" version="22.0.2" etag="1eyiXeD7YGgAHRgfSlNo" type="device">
  <diagram id="LSak4XA_hcbiXRGl-0LI" name="Page-1">
    <mxGraphModel dx="1839" dy="523" grid="1" gridSize="10" guides="1" tooltips="1" connect="1" arrows="1" fold="1" page="1" pageScale="1" pageWidth="850" pageHeight="1100" math="0" shadow="0">
      <root>
        <mxCell id="0" />
        <mxCell id="1" parent="0" />
        <mxCell id="Mb6x0LS9IFVc5ClkAzHX-4" value="Resource Group A" style="rounded=1;whiteSpace=wrap;html=1;fillColor=#d5e8d4;strokeColor=#82b366;verticalAlign=top;fontStyle=1" vertex="1" parent="1">
          <mxGeometry x="-145" y="465" width="440" height="140" as="geometry" />
        </mxCell>
        <mxCell id="Mb6x0LS9IFVc5ClkAzHX-7" value="Resource Group B" style="rounded=1;whiteSpace=wrap;html=1;verticalAlign=top;fillColor=#d5e8d4;strokeColor=#82b366;fontStyle=1" vertex="1" parent="1">
          <mxGeometry x="-10" y="650" width="470" height="220" as="geometry" />
        </mxCell>
        <mxCell id="Mb6x0LS9IFVc5ClkAzHX-11" value="Virtual Network" style="rounded=0;whiteSpace=wrap;html=1;fillColor=#dae8fc;strokeColor=#6c8ebf;verticalAlign=top;fontStyle=1;align=right;" vertex="1" parent="1">
          <mxGeometry x="210" y="739" width="200" height="121" as="geometry" />
        </mxCell>
        <mxCell id="Mb6x0LS9IFVc5ClkAzHX-1" value="Container Registry" style="image;aspect=fixed;html=1;points=[];align=center;fontSize=12;image=img/lib/azure2/containers/Container_Registries.svg;" vertex="1" parent="1">
          <mxGeometry x="-95" y="497" width="75" height="67.28" as="geometry" />
        </mxCell>
        <mxCell id="Mb6x0LS9IFVc5ClkAzHX-2" value="Private DNS Zone&lt;br&gt;privatelink.azurecr.cn" style="image;sketch=0;aspect=fixed;html=1;points=[];align=center;fontSize=12;image=img/lib/mscae/DNS_Private_Zones.svg;" vertex="1" parent="1">
          <mxGeometry x="65.00000000000006" y="505" width="50" height="50" as="geometry" />
        </mxCell>
        <mxCell id="Mb6x0LS9IFVc5ClkAzHX-19" style="edgeStyle=orthogonalEdgeStyle;rounded=0;orthogonalLoop=1;jettySize=auto;html=1;fillColor=#f8cecc;strokeColor=#b85450;strokeWidth=3;dashed=1;dashPattern=1 1;" edge="1" parent="1" source="Mb6x0LS9IFVc5ClkAzHX-3" target="Mb6x0LS9IFVc5ClkAzHX-2">
          <mxGeometry relative="1" as="geometry" />
        </mxCell>
        <mxCell id="Mb6x0LS9IFVc5ClkAzHX-3" value="private link" style="image;aspect=fixed;html=1;points=[];align=center;fontSize=12;image=img/lib/azure2/networking/Private_Link.svg;" vertex="1" parent="1">
          <mxGeometry x="184.33000000000004" y="497" width="72" height="66" as="geometry" />
        </mxCell>
        <mxCell id="Mb6x0LS9IFVc5ClkAzHX-8" value="" style="image;sketch=0;aspect=fixed;html=1;points=[];align=center;fontSize=12;image=img/lib/mscae/ResourceGroup.svg;" vertex="1" parent="1">
          <mxGeometry x="-50" y="630" width="75" height="60" as="geometry" />
        </mxCell>
        <mxCell id="Mb6x0LS9IFVc5ClkAzHX-23" style="edgeStyle=orthogonalEdgeStyle;rounded=0;orthogonalLoop=1;jettySize=auto;html=1;strokeWidth=3;fillColor=#f8cecc;strokeColor=#b85450;dashed=1;dashPattern=1 1;entryX=0.979;entryY=0.631;entryDx=0;entryDy=0;entryPerimeter=0;" edge="1" parent="1" source="Mb6x0LS9IFVc5ClkAzHX-9" target="Mb6x0LS9IFVc5ClkAzHX-18">
          <mxGeometry relative="1" as="geometry">
            <Array as="points">
              <mxPoint x="146" y="740" />
              <mxPoint x="146" y="739" />
            </Array>
          </mxGeometry>
        </mxCell>
        <mxCell id="Mb6x0LS9IFVc5ClkAzHX-25" value="Inbound" style="edgeLabel;html=1;align=center;verticalAlign=middle;resizable=0;points=[];fontSize=12;" vertex="1" connectable="0" parent="Mb6x0LS9IFVc5ClkAzHX-23">
          <mxGeometry x="-0.0929" y="-2" relative="1" as="geometry">
            <mxPoint y="2" as="offset" />
          </mxGeometry>
        </mxCell>
        <mxCell id="Mb6x0LS9IFVc5ClkAzHX-9" value="VNet" style="image;aspect=fixed;html=1;points=[];align=center;fontSize=12;image=img/lib/azure2/networking/Virtual_Networks.svg;" vertex="1" parent="1">
          <mxGeometry x="180" y="720" width="67" height="40" as="geometry" />
        </mxCell>
        <mxCell id="Mb6x0LS9IFVc5ClkAzHX-10" value="App Service" style="image;aspect=fixed;html=1;points=[];align=center;fontSize=12;image=img/lib/azure2/app_services/App_Services.svg;" vertex="1" parent="1">
          <mxGeometry x="320" y="779.5" width="50" height="50" as="geometry" />
        </mxCell>
        <mxCell id="Mb6x0LS9IFVc5ClkAzHX-26" value="Inbound" style="edgeStyle=orthogonalEdgeStyle;rounded=0;orthogonalLoop=1;jettySize=auto;html=1;fillColor=#f8cecc;strokeColor=#b85450;strokeWidth=3;dashed=1;dashPattern=1 1;fontSize=12;exitX=-0.019;exitY=0.63;exitDx=0;exitDy=0;exitPerimeter=0;" edge="1" parent="1" source="Mb6x0LS9IFVc5ClkAzHX-18">
          <mxGeometry relative="1" as="geometry">
            <mxPoint x="40" y="813.9999999999999" as="sourcePoint" />
            <mxPoint x="-95" y="535" as="targetPoint" />
            <Array as="points">
              <mxPoint x="39" y="740" />
              <mxPoint x="-130" y="740" />
              <mxPoint x="-130" y="535" />
            </Array>
          </mxGeometry>
        </mxCell>
        <mxCell id="Mb6x0LS9IFVc5ClkAzHX-18" value="Private Endpoint" style="image;aspect=fixed;html=1;points=[];align=center;fontSize=12;image=img/lib/azure2/networking/Private_Endpoint.svg;" vertex="1" parent="1">
          <mxGeometry x="40" y="713.64" width="43.64" height="40" as="geometry" />
        </mxCell>
        <mxCell id="Mb6x0LS9IFVc5ClkAzHX-20" style="edgeStyle=orthogonalEdgeStyle;rounded=0;orthogonalLoop=1;jettySize=auto;html=1;entryX=0.992;entryY=0.49;entryDx=0;entryDy=0;entryPerimeter=0;strokeWidth=3;fillColor=#f8cecc;strokeColor=#b85450;dashed=1;dashPattern=1 1;" edge="1" parent="1" source="Mb6x0LS9IFVc5ClkAzHX-2" target="Mb6x0LS9IFVc5ClkAzHX-1">
          <mxGeometry relative="1" as="geometry" />
        </mxCell>
        <mxCell id="Mb6x0LS9IFVc5ClkAzHX-21" value="" style="image;sketch=0;aspect=fixed;html=1;points=[];align=center;fontSize=12;image=img/lib/mscae/ResourceGroup.svg;" vertex="1" parent="1">
          <mxGeometry x="-190" y="437" width="75" height="60" as="geometry" />
        </mxCell>
        <mxCell id="Mb6x0LS9IFVc5ClkAzHX-22" value="DNS" style="edgeStyle=orthogonalEdgeStyle;rounded=0;orthogonalLoop=1;jettySize=auto;html=1;entryX=1.007;entryY=0.639;entryDx=0;entryDy=0;entryPerimeter=0;exitX=0.494;exitY=0.011;exitDx=0;exitDy=0;exitPerimeter=0;fillColor=#dae8fc;strokeColor=#6c8ebf;strokeWidth=3;dashed=1;dashPattern=1 2;" edge="1" parent="1" source="Mb6x0LS9IFVc5ClkAzHX-9" target="Mb6x0LS9IFVc5ClkAzHX-3">
          <mxGeometry x="0.1723" relative="1" as="geometry">
            <Array as="points">
              <mxPoint x="241" y="690" />
              <mxPoint x="310" y="690" />
              <mxPoint x="310" y="540" />
              <mxPoint x="257" y="540" />
            </Array>
            <mxPoint as="offset" />
          </mxGeometry>
        </mxCell>
        <mxCell id="Mb6x0LS9IFVc5ClkAzHX-28" value="Outbound" style="edgeStyle=orthogonalEdgeStyle;rounded=0;orthogonalLoop=1;jettySize=auto;html=1;entryX=0.993;entryY=0.45;entryDx=0;entryDy=0;entryPerimeter=0;fillColor=#ffe6cc;strokeColor=#d79b00;strokeWidth=3;dashed=1;dashPattern=1 1;" edge="1" parent="1" source="Mb6x0LS9IFVc5ClkAzHX-10" target="Mb6x0LS9IFVc5ClkAzHX-9">
          <mxGeometry relative="1" as="geometry">
            <Array as="points">
              <mxPoint x="280" y="814" />
              <mxPoint x="280" y="738" />
            </Array>
          </mxGeometry>
        </mxCell>
      </root>
    </mxGraphModel>
  </diagram>
</mxfile>
